<svg width="22" height="23" viewBox="0 0 22 23" fill="none" xmlns="http://www.w3.org/2000/svg">
<path d="M21.2182 4.18721L11.4682 0.124707C11.3195 0.0626923 11.1601 0.0307617 10.999 0.0307617C10.8379 0.0307617 10.6784 0.0626923 10.5298 0.124707L0.779758 4.18721C0.532046 4.29038 0.325309 4.47242 0.191623 4.70509C0.0579357 4.93776 0.00477313 5.20804 0.0403827 5.474L1.66538 17.6615C1.6917 17.8585 1.7658 18.0461 1.88122 18.2079C1.99664 18.3697 2.14987 18.5008 2.32757 18.5898L10.4526 22.6523C10.6219 22.737 10.8086 22.7811 10.998 22.7811C11.1873 22.7811 11.374 22.737 11.5434 22.6523L19.6684 18.5898C19.8461 18.5008 19.9993 18.3697 20.1147 18.2079C20.2301 18.0461 20.3042 17.8585 20.3305 17.6615L21.9555 5.474C21.9913 5.20828 21.9384 4.93818 21.8051 4.70554C21.6718 4.47291 21.4655 4.29072 21.2182 4.18721ZM18.0078 16.6987L11 20.1996L3.99726 16.6987L2.58148 6.0783L11 2.57033L19.4185 6.0783L18.0078 16.6987ZM9.9346 6.34541L5.8721 13.6579C5.79435 13.798 5.74493 13.9519 5.72669 14.1111C5.70844 14.2702 5.72172 14.4314 5.76576 14.5854C5.8098 14.7394 5.88375 14.8832 5.98337 15.0087C6.083 15.1341 6.20636 15.2387 6.3464 15.3164C6.48644 15.3942 6.64043 15.4436 6.79957 15.4618C6.95871 15.4801 7.11988 15.4668 7.27389 15.4228C7.42789 15.3787 7.57172 15.3048 7.69715 15.2052C7.82258 15.1055 7.92716 14.9822 8.00492 14.8421L8.78288 13.4375H13.2171L13.9971 14.8421C14.1541 15.125 14.4171 15.3338 14.7281 15.4228C15.0392 15.5117 15.3728 15.4735 15.6556 15.3164C15.9384 15.1594 16.1473 14.8964 16.2363 14.5854C16.3252 14.2744 16.287 13.9407 16.1299 13.6579L12.0674 6.34541C11.962 6.15492 11.8075 5.99614 11.62 5.88557C11.4324 5.775 11.2187 5.71669 11.001 5.71669C10.7833 5.71669 10.5696 5.775 10.382 5.88557C10.1945 5.99614 10.04 6.15492 9.9346 6.34541ZM10.1377 11L11 9.44713L11.8623 11H10.1377Z" fill="white"/>
</svg>
