<svg width="25" height="22" viewBox="0 0 25 22" fill="none" xmlns="http://www.w3.org/2000/svg">
<path d="M24.5937 15.0624V18.3124C24.5937 18.6356 24.4653 18.9456 24.2368 19.1742C24.0082 19.4027 23.6982 19.5311 23.375 19.5311C23.0517 19.5311 22.7418 19.4027 22.5132 19.1742C22.2846 18.9456 22.1562 18.6356 22.1562 18.3124V17.9986C20.8928 19.1665 17.3066 21.9686 12 21.9686C5.43904 21.9686 1.50857 17.6847 1.34404 17.4999C1.22682 17.3828 1.1347 17.243 1.07331 17.0892C1.01193 16.9353 0.982561 16.7705 0.987012 16.6049C0.991463 16.4392 1.02964 16.2763 1.0992 16.1259C1.16876 15.9755 1.26825 15.8409 1.3916 15.7303C1.51494 15.6197 1.65954 15.5354 1.81656 15.4825C1.97359 15.4297 2.13974 15.4094 2.30487 15.4229C2.47 15.4365 2.63063 15.4835 2.77696 15.5612C2.92328 15.6389 3.05223 15.7457 3.15591 15.8749C3.18638 15.9084 6.55623 19.5311 12 19.5311C16.3316 19.5311 19.347 17.2379 20.4165 16.2811H20.125C19.8017 16.2811 19.4918 16.1527 19.2632 15.9242C19.0346 15.6956 18.9062 15.3856 18.9062 15.0624C18.9062 14.7392 19.0346 14.4292 19.2632 14.2006C19.4918 13.972 19.8017 13.8436 20.125 13.8436H23.375C23.6982 13.8436 24.0082 13.972 24.2368 14.2006C24.4653 14.4292 24.5937 14.7392 24.5937 15.0624ZM14.8437 6.74239V6.53114C14.8439 5.83029 14.6176 5.14815 14.1985 4.58645C13.7793 4.02475 13.1898 3.61359 12.5179 3.41429C11.846 3.21499 11.1277 3.23823 10.4701 3.48054C9.81244 3.72286 9.25076 4.17126 8.8688 4.75887C8.69237 5.02972 8.41558 5.21938 8.09931 5.28614C7.78304 5.35289 7.4532 5.29128 7.18236 5.11485C6.91152 4.93842 6.72185 4.66162 6.6551 4.34535C6.58834 4.02908 6.64995 3.69925 6.82638 3.4284C7.49509 2.40057 8.47808 1.61637 9.6288 1.19274C10.7795 0.769098 12.0363 0.728704 13.2119 1.07758C14.3874 1.42645 15.4187 2.1459 16.1521 3.12868C16.8854 4.11145 17.2815 5.30492 17.2812 6.53114V15.8749C17.2792 16.1808 17.1622 16.4747 16.9535 16.6983C16.7449 16.9219 16.4597 17.0589 16.1547 17.082C15.8497 17.1052 15.5472 17.0128 15.3072 16.8232C15.0671 16.6337 14.9071 16.3608 14.859 16.0587C14.0077 16.6572 13.0085 17.0106 11.9703 17.0805C10.9321 17.1505 9.89454 16.9342 8.97069 16.4554C8.04684 15.9765 7.27208 15.2533 6.73074 14.3646C6.18941 13.4759 5.90226 12.4558 5.90056 11.4152C5.89886 10.3746 6.18267 9.3535 6.72109 8.46304C7.25951 7.57258 8.03191 6.8469 8.95419 6.36501C9.87647 5.88312 10.9133 5.66349 11.9517 5.73003C12.9902 5.79657 13.9905 6.14673 14.8437 6.74239ZM14.8437 11.4061C14.8437 10.7634 14.6531 10.135 14.296 9.60054C13.9389 9.06608 13.4313 8.64952 12.8374 8.40353C12.2436 8.15755 11.5901 8.09318 10.9597 8.21859C10.3292 8.34399 9.75015 8.65352 9.29563 9.10804C8.84111 9.56256 8.53158 10.1417 8.40617 10.7721C8.28077 11.4025 8.34513 12.056 8.59112 12.6499C8.8371 13.2437 9.25366 13.7513 9.78812 14.1084C10.3226 14.4655 10.9509 14.6561 11.5937 14.6561C12.4557 14.6561 13.2823 14.3137 13.8918 13.7042C14.5013 13.0947 14.8437 12.2681 14.8437 11.4061Z" fill="white"/>
</svg>
