<svg width="22" height="22" viewBox="0 0 22 22" fill="none" xmlns="http://www.w3.org/2000/svg">
<path d="M13.6609 12.0491C14.0024 11.5621 14.2037 10.9908 14.2429 10.3974C14.2821 9.8039 14.1578 9.21106 13.8833 8.68342C13.6089 8.15577 13.1949 7.71355 12.6865 7.40492C12.1781 7.09629 11.5948 6.93309 11 6.93309C10.4053 6.93309 9.82191 7.09629 9.3135 7.40492C8.8051 7.71355 8.39113 8.15577 8.11669 8.68342C7.84225 9.21106 7.71786 9.8039 7.75707 10.3974C7.79628 10.9908 7.99759 11.5621 8.33907 12.0491C7.99089 12.2131 7.68613 12.4566 7.44938 12.76C7.22194 13.0502 7.06427 13.3888 6.98854 13.7496C6.91282 14.1105 6.92107 14.4839 7.01266 14.841L8.24969 19.716C8.3854 20.2459 8.69408 20.7152 9.12681 21.0497C9.55953 21.3842 10.0915 21.5646 10.6384 21.5624H11.3616C11.9081 21.5648 12.4398 21.3848 12.8724 21.0509C13.3051 20.717 13.614 20.2483 13.7503 19.7191L14.9873 14.8441C15.0789 14.4869 15.0872 14.1135 15.0115 13.7527C14.9357 13.3919 14.7781 13.0533 14.5506 12.7631C14.3142 12.4585 14.0094 12.2139 13.6609 12.0491ZM11 8.56244C11.3214 8.56244 11.6356 8.65774 11.9028 8.8363C12.17 9.01486 12.3783 9.26865 12.5013 9.56558C12.6243 9.86251 12.6565 10.1892 12.5938 10.5045C12.5311 10.8197 12.3763 11.1092 12.1491 11.3365C11.9218 11.5637 11.6322 11.7185 11.317 11.7812C11.0018 11.8439 10.6751 11.8117 10.3781 11.6887C10.0812 11.5658 9.82742 11.3575 9.64886 11.0902C9.47031 10.823 9.375 10.5088 9.375 10.1874C9.375 9.75646 9.54621 9.34314 9.85095 9.03839C10.1557 8.73364 10.569 8.56244 11 8.56244ZM13.4121 14.4439L12.1751 19.3189C12.1278 19.4978 12.0223 19.6557 11.8751 19.7677C11.7279 19.8798 11.5475 19.9395 11.3626 19.9374H10.6395C10.4545 19.9395 10.2741 19.8798 10.127 19.7677C9.97978 19.6557 9.8742 19.4978 9.82695 19.3189L8.58992 14.4439C8.55942 14.3266 8.55656 14.2038 8.58159 14.0852C8.60662 13.9666 8.65884 13.8554 8.73414 13.7604C8.8133 13.6589 8.91474 13.577 9.03062 13.521C9.14651 13.465 9.27372 13.4364 9.40242 13.4374H12.6016C12.7303 13.4364 12.8576 13.465 12.9734 13.521C13.0893 13.577 13.1908 13.6589 13.2699 13.7604C13.3449 13.8556 13.3967 13.9668 13.4214 14.0854C13.4461 14.204 13.4429 14.3268 13.4121 14.4439ZM5.3125 10.9999C5.31219 11.4795 5.37224 11.9572 5.49125 12.4218C5.51978 12.5257 5.52737 12.6342 5.51356 12.7411C5.49975 12.848 5.46482 12.951 5.41082 13.0442C5.35681 13.1375 5.2848 13.219 5.19898 13.2842C5.11315 13.3493 5.01523 13.3967 4.91091 13.4237C4.80658 13.4506 4.69794 13.4565 4.59131 13.4411C4.48468 13.4256 4.38218 13.3891 4.28979 13.3337C4.19739 13.2783 4.11694 13.205 4.05312 13.1182C3.98931 13.0314 3.94339 12.9328 3.91805 12.8281C3.64016 11.7478 3.6131 10.6182 3.83894 9.52587C4.06478 8.43352 4.53752 7.4073 5.22099 6.52577C5.90447 5.64423 6.78056 4.93074 7.78222 4.43989C8.78387 3.94905 9.88455 3.69386 11 3.69386C12.1155 3.69386 13.2161 3.94905 14.2178 4.43989C15.2194 4.93074 16.0955 5.64423 16.779 6.52577C17.4625 7.4073 17.9352 8.43352 18.1611 9.52587C18.3869 10.6182 18.3598 11.7478 18.082 12.8281C18.0369 13.0024 17.9353 13.1568 17.793 13.2671C17.6508 13.3774 17.4759 13.4373 17.2959 13.4374C17.2274 13.4374 17.1591 13.4289 17.0927 13.412C16.8841 13.3583 16.7055 13.2238 16.5959 13.0383C16.4864 12.8528 16.4551 12.6314 16.5088 12.4228C16.7094 11.6414 16.7415 10.8263 16.603 10.0315C16.4645 9.23679 16.1585 8.48059 15.7053 7.81317C15.2521 7.14576 14.6621 6.58239 13.9745 6.16047C13.2868 5.73856 12.5173 5.46776 11.717 5.36605C10.9167 5.26434 10.1039 5.33405 9.33265 5.57056C8.56135 5.80706 7.84919 6.20495 7.24346 6.73779C6.63773 7.27064 6.15229 7.92625 5.81937 8.66109C5.48645 9.39594 5.31367 10.1932 5.3125 10.9999ZM21.5625 10.9999C21.5639 12.7429 21.1334 14.459 20.3094 15.9949C19.4855 17.5308 18.2938 18.8386 16.8409 19.8013C16.6615 19.9162 16.4441 19.956 16.2356 19.9122C16.0272 19.8684 15.8442 19.7445 15.7262 19.5671C15.6083 19.3897 15.5647 19.1731 15.6048 18.9639C15.645 18.7547 15.7657 18.5696 15.941 18.4485C17.5407 17.387 18.7561 15.8387 19.4073 14.0326C20.0584 12.2265 20.1107 10.2588 19.5563 8.42068C19.0019 6.5826 17.8704 4.97188 16.3293 3.82698C14.7882 2.68208 12.9194 2.06387 10.9995 2.06387C9.07963 2.06387 7.2108 2.68208 5.66967 3.82698C4.12854 4.97188 2.99704 6.5826 2.44269 8.42068C1.88833 10.2588 1.94059 12.2265 2.59172 14.0326C3.24285 15.8387 4.45825 17.387 6.05797 18.4485C6.20317 18.5452 6.31343 18.686 6.37243 18.8501C6.43143 19.0142 6.43604 19.193 6.38559 19.36C6.33514 19.5269 6.23229 19.6732 6.09227 19.7772C5.95224 19.8812 5.78247 19.9374 5.60805 19.9374C5.44822 19.9377 5.29193 19.8903 5.15914 19.8013C3.63759 18.7915 2.40385 17.4044 1.57833 15.7755C0.752809 14.1466 0.363719 12.3314 0.449035 10.5073C0.53435 8.6831 1.09116 6.91221 2.06511 5.36744C3.03906 3.82267 4.39688 2.5568 6.00604 1.69338C7.6152 0.82997 9.42073 0.398507 11.2464 0.441107C13.0721 0.483708 14.8555 0.998917 16.4227 1.93645C17.9898 2.87398 19.2871 4.2018 20.1879 5.79032C21.0888 7.37883 21.5624 9.17377 21.5625 10.9999Z" fill="white"/>
</svg>
