<svg width="12" height="10" viewBox="0 0 12 10" fill="none" xmlns="http://www.w3.org/2000/svg">
<path fill-rule="evenodd" clip-rule="evenodd" d="M4.85223 1.8378e-07H7.14777C8.17349 -8.87613e-06 8.98594 -1.60933e-05 9.62178 0.0875058C10.2762 0.177579 10.8058 0.36736 11.2235 0.794996C11.6412 1.22263 11.8266 1.76489 11.9145 2.43484C12 3.08582 12 3.91762 12 4.96777V5.03224C12 6.08239 12 6.91418 11.9145 7.56516C11.8266 8.23511 11.6412 8.77737 11.2235 9.205C10.8058 9.63264 10.2762 9.82242 9.62178 9.91249C8.98594 10 8.17349 10 7.14776 10H4.85224C3.82651 10 3.01406 10 2.37822 9.91249C1.72384 9.82242 1.1942 9.63264 0.776508 9.205C0.358817 8.77737 0.173449 8.23511 0.0854708 7.56516C-1.5719e-05 6.91418 -8.6697e-06 6.08239 1.79506e-07 5.03224V4.96776C-8.6697e-06 3.91761 -1.5719e-05 3.08582 0.0854708 2.43484C0.173449 1.76489 0.358817 1.22263 0.776508 0.794996C1.1942 0.36736 1.72385 0.177579 2.37822 0.0875058C3.01406 -1.60933e-05 3.82651 -8.87613e-06 4.85223 1.8378e-07ZM2.48978 0.937005C1.92824 1.0143 1.60471 1.15925 1.3685 1.40109C1.13229 1.64292 0.990711 1.97415 0.915214 2.54906C0.838099 3.13629 0.83721 3.91039 0.83721 5C0.83721 6.08961 0.838099 6.86371 0.915214 7.45094C0.990711 8.02585 1.13229 8.35708 1.3685 8.59891C1.60471 8.84075 1.92824 8.9857 2.48978 9.06299C3.06336 9.14195 3.81945 9.14286 4.88372 9.14286H7.11628C8.18055 9.14286 8.93664 9.14195 9.51022 9.06299C10.0718 8.9857 10.3953 8.84075 10.6315 8.59891C10.8677 8.35708 11.0093 8.02585 11.0848 7.45094C11.1619 6.86371 11.1628 6.08961 11.1628 5C11.1628 3.91039 11.1619 3.13629 11.0848 2.54906C11.0093 1.97415 10.8677 1.64292 10.6315 1.40109C10.3953 1.15925 10.0718 1.0143 9.51022 0.937005C8.93664 0.858053 8.18055 0.857143 7.11628 0.857143H4.88372C3.81945 0.857143 3.06336 0.858053 2.48978 0.937005ZM2.32958 2.43992C2.47759 2.25809 2.74154 2.23352 2.91915 2.38505L4.12411 3.41309C4.64483 3.85736 5.00636 4.16481 5.31158 4.36579C5.60704 4.56034 5.8074 4.62564 6 4.62564C6.1926 4.62564 6.39296 4.56034 6.68842 4.36579C6.99364 4.16481 7.35517 3.85736 7.87589 3.41309L9.08085 2.38505C9.25846 2.23352 9.52241 2.25809 9.67042 2.43992C9.81842 2.62175 9.79443 2.892 9.61682 3.04352L8.39087 4.08947C7.89616 4.51156 7.49519 4.85367 7.1413 5.0867C6.77265 5.32944 6.41363 5.48279 6 5.48279C5.58638 5.48279 5.22735 5.32944 4.8587 5.0867C4.50481 4.85367 4.10384 4.51156 3.60913 4.08948L2.38318 3.04352C2.20557 2.892 2.18158 2.62175 2.32958 2.43992Z" fill="#EE161F"/>
</svg>
